<svg width="80" height="78" viewBox="0 0 80 78" fill="none" xmlns="http://www.w3.org/2000/svg">
<path d="M70.2364 56.5085C74.0114 54.2347 76.5293 50.1461 76.5293 45.4803C76.5293 38.3393 70.6312 32.5504 63.3555 32.5504C56.0797 32.5504 50.1816 38.3393 50.1816 45.4803C50.1816 50.1461 52.6996 54.2347 56.4746 56.5085C54.7195 57.2215 53.1036 58.2084 51.7113 59.4382C48.6231 62.1662 46.8881 65.866 46.8881 69.7239V77.8051H79.8228V69.7239C79.8228 65.866 78.0879 62.1662 74.9996 59.4382C73.6074 58.2084 71.9915 57.2215 70.2364 56.5085Z" fill="none"/>
<path d="M30.4207 33.3143H33.7142V43.047H30.4207V33.3143Z" fill="#28574E"/>
<path d="M30.4207 46.2912H33.7142V49.5355H30.4207V46.2912Z" fill="#28574E"/>
<path d="M33.7142 20.3374V17.0931C40.3012 17.0931 43.5946 20.3374 43.5946 26.8258L40.3012 26.8258C40.3012 23.5816 37.0077 20.3374 33.7142 20.3374Z" fill="#28574E"/>
<path d="M33.7142 33.3143L33.7142 36.5585C40.3012 36.5585 43.5946 33.3143 43.5946 26.8258L40.3012 26.8258C40.3012 30.0701 37.0077 33.3143 33.7142 33.3143Z" fill="#28574E"/>
<path d="M33.7142 20.3374V17.0931C27.1273 17.0931 23.8338 20.3374 23.8338 26.8258L27.1273 26.8258C27.1273 23.5816 30.4208 20.3374 33.7142 20.3374Z" fill="#28574E"/>
<path d="M56.8122 6.69043L17.4655 6.69043V9.87514L56.8122 9.87514C60.0911 9.87514 63.37 13.0598 63.37 16.2446V35.3528H66.6489V16.2446C66.6489 9.87514 63.37 6.69043 56.8122 6.69043Z" fill="#28574E"/>
<path d="M17.2469 55.1776C14.0992 55.1776 10.66 52.2954 10.66 49.2381V15.6076H7.36649V49.2381C7.36649 55.3528 10.5142 58.4101 16.8097 58.4101L35.6962 58.4101V55.1776H17.2469Z" fill="#28574E"/>
<path d="M38.057 58.4101V55.1776L44.3524 55.0665V58.4101H38.057Z" fill="#28574E"/>
<path d="M50.1816 42.2479C50.1816 35.7829 53.4751 32.5504 60.062 32.5504H66.6489C73.2359 32.5504 76.5293 35.7829 76.5293 42.2479H79.8228V48.7128H76.5293C76.5293 55.1778 73.2359 58.4102 66.6489 58.4102V55.1778C69.9424 55.1778 73.2359 51.9453 73.2359 48.7128V42.2479C73.2359 39.0154 69.9424 35.7829 66.6489 35.7829H60.062C56.7685 35.7829 53.4751 39.0154 53.4751 42.2479V48.7128H46.8881V42.2479H50.1816Z" fill="#28574E"/>
<rect x="0.779541" y="3.45813" width="16.4673" height="9.69744" fill="none"/>
<path fill-rule="evenodd" clip-rule="evenodd" d="M4.07302 3.46939V0.225586L13.9535 0.225586V3.45779H17.2469L17.2469 13.2028H13.9535V16.4466H4.07302V13.2028H0.779541V3.46996L4.07302 3.46939ZM7.36653 13.2023V9.95804H4.07305V6.71366H7.36653V3.46986H10.6599V6.71366H13.9534V6.69027L13.9534 9.9585L10.6599 9.95804V13.2023H7.36653Z" fill="#28574E"/>
</svg>
