<svg width="95" height="86" viewBox="0 0 95 86" fill="none" xmlns="http://www.w3.org/2000/svg">
<path fill-rule="evenodd" clip-rule="evenodd" d="M13.2085 36.3612L38.5367 36.3612C41.7027 36.3612 44.8687 39.2634 44.8687 42.1655V53.7743L29.0386 53.7743V56.6765L44.8687 56.6765V59.5787L29.0386 59.5787V62.4808H44.8687V66.8341C44.8687 67.6355 45.5775 68.2852 46.4517 68.2852C47.326 68.2852 48.0348 67.6355 48.0348 66.8341V62.4808H51.201V74.0896H38.5365V76.9918L76.5287 76.9918V74.0896H73.3629V59.5787C73.3629 53.7743 70.1969 50.8721 63.8649 50.8721H54.3666C52.6182 50.8723 51.201 52.1716 51.201 53.7743V59.5787H48.0348V42.1655C48.0348 36.3612 44.8687 33.459 38.5367 33.459H13.2085C6.87648 33.459 3.71045 36.3612 3.71045 42.1655L3.71045 74.0896C1.96191 74.0896 0.544434 75.3889 0.544434 76.9918H29.0386V74.0896H6.87648V62.4808H25.8726V59.5787L6.87648 59.5787V56.6765L25.8726 56.6765V53.7743L6.87648 53.7743L6.87648 42.1655C6.87648 39.2634 10.0425 36.3612 13.2085 36.3612ZM70.1969 65.383V59.5787C70.1969 56.6765 67.0309 53.7743 63.8649 53.7743H54.367V74.0896H70.1969V68.2852H60.6988C60.6988 66.6824 62.1163 65.383 63.8649 65.383H70.1969Z" fill="#28574E"/>
<path d="M35.3707 74.0896H32.2046V76.9918H35.3707V74.0896Z" fill="#28574E"/>
<path d="M25.8726 16.0459H29.0386V21.8503H25.8726V16.0459Z" fill="#28574E"/>
<path d="M22.7066 24.7525C20.958 24.7525 19.5405 26.0518 19.5405 27.6546V36.3612H22.7066V27.6546H32.2046V36.3612H35.3707V27.6546C35.3707 26.0518 33.9532 24.7525 32.2046 24.7525H22.7066Z" fill="#28574E"/>
<path d="M13.2085 18.9481H10.0425V21.8503H13.2085V24.7525H16.3745V21.8503H13.2085V18.9481Z" fill="#28574E"/>
<path d="M41.7027 21.8503H38.5367V24.7525H41.7027V21.8503Z" fill="#28574E"/>
<path d="M41.7027 21.8503H44.8687V18.9481H41.7027V21.8503Z" fill="#28574E"/>
<path d="M16.3745 30.5568V27.6546H10.0425V30.5568H16.3745Z" fill="#28574E"/>
<path d="M44.8687 27.6546V30.5568H38.5367V27.6546H44.8687Z" fill="#28574E"/>
<path d="M14.7915 85.6982C19.1629 85.6982 22.7066 82.4498 22.7066 78.4427C22.7066 74.4356 19.1629 71.1873 14.7915 71.1873C10.4202 71.1873 6.87646 74.4356 6.87646 78.4427C6.87646 82.4498 10.4202 85.6982 14.7915 85.6982Z" fill="#28574E"/>
<path d="M55.9498 85.6982C60.3212 85.6982 63.8649 82.4498 63.8649 78.4427C63.8649 74.4356 60.3212 71.1873 55.9498 71.1873C51.5784 71.1873 48.0347 74.4356 48.0347 78.4427C48.0347 82.4498 51.5784 85.6982 55.9498 85.6982Z" fill="#28574E"/>
<path d="M22.7068 53.7743V50.8721H32.2048V53.7743L35.3709 53.7743V62.4808H32.2048V65.383H22.7068V62.4808L22.7068 59.5786H25.8728V62.4808H29.0388V59.5786H32.2048V56.6764H29.0388V53.7743H25.8728V56.6764H22.7068V62.4808L19.5406 62.4802V53.7737L22.7068 53.7743Z" fill="#28574E"/>
</svg>
