<svg width="74" height="69" viewBox="0 0 74 69" fill="none" xmlns="http://www.w3.org/2000/svg">
<path d="M51.814 3.50134C46.777 3.50134 42.6937 7.30307 42.6937 11.9927V17.6537C42.6937 22.3433 46.777 26.145 51.814 26.145H63.9745C69.0115 26.145 73.0948 22.3433 73.0948 17.6537V11.9927C73.0948 7.30307 69.0115 3.50134 63.9745 3.50134H51.814Z" fill="none"/>
<path d="M9.25237 20.4841C4.21534 20.4841 0.132019 24.2858 0.132019 28.9755V40.2973C0.132019 44.987 4.21534 48.7887 9.25237 48.7887H24.453C29.49 48.7887 33.5733 44.987 33.5733 40.2973V28.9755C33.5733 24.2858 29.49 20.4841 24.453 20.4841H9.25237Z" fill="none"/>
<rect x="57.8943" y="3.50134" width="15.2006" height="8.49139" fill="none"/>
<path d="M42.6937 14.8232C42.6937 9.16225 45.7338 6.33179 51.814 6.33179H57.8943V9.16225L51.814 9.16225C48.7739 9.16225 45.7338 11.9927 45.7338 14.8232V23.3146H42.6937V14.8232Z" fill="#28574E"/>
<path d="M45.7338 26.145H42.6937V23.3146H39.6536V28.9755H36.6134V31.8059H39.6536V28.9755H45.7338V26.145Z" fill="#28574E"/>
<path d="M73.0948 17.6536C73.0948 23.3146 70.0547 26.145 63.9745 26.145H45.7338V23.3146H63.9745C67.0146 23.3146 70.0547 20.4841 70.0547 17.6536V14.8232H73.0948V17.6536Z" fill="#28574E"/>
<path d="M54.8541 17.6536H51.814V20.4841H54.8541V17.6536Z" fill="#28574E"/>
<path d="M60.9344 17.6536H57.8943V20.4841H60.9344V17.6536Z" fill="#28574E"/>
<path d="M13.599 29.4901H16.9658V32.5779H13.599V29.4901Z" fill="#28574E"/>
<path d="M13.599 38.7534H23.6993V41.8412H13.599V38.7534Z" fill="#28574E"/>
<path d="M10.2322 35.6657H13.5989L13.599 38.7534L10.2322 38.7534V35.6657Z" fill="#28574E"/>
<path d="M23.6992 35.6657H27.0659V38.7534L23.6993 38.7534L23.6992 35.6657Z" fill="#28574E"/>
<path d="M20.3325 29.4901H23.6993V32.5779H20.3325V29.4901Z" fill="#28574E"/>
<path d="M3.17214 32.7494V39.0394H0.132019V32.7494C0.132019 26.4595 3.44857 23.3146 10.0815 23.3146H23.3474L23.3474 26.145H10.0815C6.76503 26.1451 3.17214 29.6045 3.17214 32.7494Z" fill="#28574E"/>
<path d="M10.0816 48.7887C3.44868 48.7887 0.132019 45.3293 0.132019 39.0394H3.17214C3.17214 43.1278 6.21225 45.9583 10.6344 45.9583L30.5332 45.9583V48.7887L10.0816 48.7887Z" fill="#28574E"/>
<path d="M36.6134 48.7887H33.5733V32.7494C33.5733 26.145 30.5332 23.3146 23.3474 23.3146L23.3474 26.145C27.4931 26.145 30.5332 28.9755 30.5332 32.7494V48.7887H33.5733V51.6192L36.6134 51.6192V48.7887Z" fill="#28574E"/>
<path d="M30.5332 11.9927C27.4931 11.9927 24.453 14.8232 24.453 17.6536V23.3145H21.4128V17.6536C21.4128 11.9927 24.453 9.16223 30.5332 9.16223H45.7338V11.9927L30.5332 11.9927Z" fill="#28574E"/>
<path d="M21.4128 60.1105C21.4128 65.7715 24.453 68.6019 30.5332 68.6019H36.6134V65.7715H30.5332C27.4931 65.7715 24.453 62.941 24.453 60.1105V45.9582H21.4128V60.1105Z" fill="#28574E"/>
<path d="M48.7739 60.1105C48.7739 62.941 45.7338 65.7715 42.6937 65.7715V68.6019C48.7739 68.6019 51.814 65.7715 51.814 60.1105V26.145H48.7739V60.1105Z" fill="#28574E"/>
<path d="M39.6535 60.1105H33.5733V62.941H39.6535V60.1105Z" fill="#28574E"/>
<path d="M60.9346 3.50136V0.670898H70.0549V3.50136L73.095 3.50136V11.9927H70.0549V14.8232H60.9346V11.9927L60.9346 9.16228H63.9747V11.9927H67.0148V9.16228H70.0549V6.33182H67.0148V3.50136H63.9747V6.33182H60.9346V11.9927L57.8943 11.9922V3.5008L60.9346 3.50136Z" fill="#28574E"/>
</svg>
