<svg width="96" height="96" viewBox="0 0 96 96" fill="none" xmlns="http://www.w3.org/2000/svg">
<path d="M0 20C0 8.9543 8.9543 0 20 0H76C87.0457 0 96 8.9543 96 20V76C96 87.0457 87.0457 96 76 96H20C8.9543 96 0 87.0457 0 76V20Z" fill="#75C5F0"/>
<path d="M73.7912 16.5065C73.1992 16.6719 72.6491 16.9614 72.1776 17.3558C71.7422 17.9367 71.5377 18.6585 71.6038 19.3815C71.4632 22.9221 71.9014 26.462 72.9009 29.8615C73.0467 30.1528 73.3274 30.0499 73.4731 29.8259C73.7589 29.0422 73.8586 28.2027 73.7644 27.3739C73.5566 27.2174 73.1266 27.0433 72.9364 26.6916C72.8365 24.4232 72.89 22.1508 73.0963 19.8897C73.2082 19.5734 73.5796 19.6302 73.8462 19.673C73.7235 18.6219 73.7051 17.5612 73.7912 16.5065Z" fill="#004B92"/>
<path d="M79.2561 20.1559H36.7391C36.6418 20.1561 36.5454 20.1754 36.4556 20.2129C36.3658 20.2503 36.2842 20.3051 36.2156 20.3741C36.1469 20.443 36.0925 20.5249 36.0555 20.6149C36.0185 20.7049 35.9997 20.8013 36 20.8986V76.0243C35.9997 76.1216 36.0185 76.2181 36.0555 76.3081C36.0925 76.3981 36.1469 76.48 36.2156 76.549C36.2842 76.6179 36.3658 76.6727 36.4556 76.7101C36.5454 76.7475 36.6418 76.7669 36.7391 76.7671H79.2561C79.3536 76.7671 79.4502 76.748 79.5404 76.7106C79.6305 76.6733 79.7124 76.6186 79.7814 76.5496C79.8503 76.4806 79.9051 76.3988 79.9424 76.3086C79.9797 76.2185 79.9988 76.1219 79.9988 76.0243V20.8986C79.9988 20.8011 79.9797 20.7045 79.9424 20.6143C79.9051 20.5242 79.8503 20.4423 79.7814 20.3733C79.7124 20.3044 79.6305 20.2496 79.5404 20.2123C79.4502 20.175 79.3536 20.1558 79.2561 20.1559Z" fill="#004B92"/>
<path d="M79.2561 20.6448L79.2563 20.6448C79.2896 20.6447 79.3226 20.6513 79.3534 20.664L79.5403 20.2125L79.3534 20.664C79.3841 20.6768 79.4121 20.6954 79.4357 20.719C79.4593 20.7426 79.478 20.7706 79.4907 20.8013C79.5034 20.832 79.5099 20.865 79.5099 20.8984V20.8986V76.0243V76.0246C79.5099 76.058 79.5034 76.091 79.4907 76.1217C79.478 76.1523 79.4593 76.1803 79.4357 76.2039C79.412 76.2276 79.384 76.2463 79.3534 76.2589L79.5404 76.7106L79.3534 76.2589C79.3227 76.2716 79.2897 76.2782 79.2563 76.2782H79.2561H36.74C36.7069 76.2781 36.6742 76.2716 36.6437 76.2588C36.613 76.2461 36.5853 76.2275 36.5621 76.2041C36.5388 76.1807 36.5203 76.1529 36.5077 76.1222C36.4952 76.0918 36.4888 76.0591 36.4889 76.0258V76.0243V20.8986H36.4889L36.4889 20.8971C36.4888 20.8639 36.4952 20.8311 36.5077 20.8007C36.5203 20.7702 36.5387 20.7424 36.5621 20.7189C36.5854 20.6954 36.6132 20.6768 36.6436 20.6641C36.6741 20.6514 36.7067 20.6449 36.7396 20.6448L79.2561 20.6448Z" stroke="white" stroke-opacity="0.79" stroke-width="0.977751"/>
<path d="M74.3103 64.3705C74.2998 64.381 69.5483 69.4522 69.5963 69.4522H42.2324C42.1598 69.4523 42.0878 69.4381 42.0207 69.4102C41.9535 69.3824 41.8926 69.3415 41.8414 69.2899C41.7901 69.2383 41.7497 69.1771 41.7223 69.1098C41.6948 69.0425 41.681 68.9705 41.6817 68.8978V28.0227C41.6814 27.9503 41.6955 27.8786 41.7231 27.8116C41.7507 27.7447 41.7912 27.6839 41.8424 27.6327C41.8936 27.5815 41.9544 27.541 42.0214 27.5134C42.0883 27.4858 42.16 27.4717 42.2324 27.4719H73.763C73.8352 27.472 73.9065 27.4864 73.9731 27.5142C74.0397 27.5419 74.1001 27.5826 74.1509 27.6337C74.2018 27.6849 74.242 27.7456 74.2694 27.8123C74.2967 27.8791 74.3106 27.9506 74.3103 28.0227V64.3705Z" fill="white"/>
<path d="M65.6604 18.8264H50.3331C50.1531 18.8264 49.9804 18.8979 49.8531 19.0252C49.7258 19.1525 49.6543 19.3252 49.6543 19.5052C49.6543 19.6852 49.7258 19.8579 49.8531 19.9852C49.9804 20.1125 50.1531 20.184 50.3331 20.184H51.52C51.3516 20.4418 51.2621 20.7432 51.2623 21.0511C51.2625 21.4777 51.4319 21.8868 51.7334 22.1886C52.0349 22.4905 52.4438 22.6603 52.8704 22.6609H63.1283C63.4172 22.6615 63.7009 22.584 63.9495 22.4368C64.1981 22.2895 64.4023 22.0779 64.5406 21.8243C64.6789 21.5706 64.7462 21.2843 64.7353 20.9956C64.7244 20.7069 64.6357 20.4265 64.4787 20.184H65.6604C65.8404 20.184 66.013 20.1125 66.1403 19.9852C66.2676 19.8579 66.3391 19.6852 66.3391 19.5052C66.3391 19.3252 66.2676 19.1525 66.1403 19.0252C66.013 18.8979 65.8404 18.8264 65.6604 18.8264Z" fill="#F53B47"/>
<path d="M69.5513 33.5562H46.4395V34.4943H69.5513V33.5562Z" fill="#D2E9FF"/>
<path d="M69.5513 37.5859H46.4395V38.5241H69.5513V37.5859Z" fill="#D2E9FF"/>
<path d="M69.5513 41.8962H46.4395V42.8344H69.5513V41.8962Z" fill="#D2E9FF"/>
<path d="M69.5513 45.9282H46.4395V46.8666H69.5513V45.9282Z" fill="#D2E9FF"/>
<path d="M69.5513 50.2385H46.4395V51.1767H69.5513V50.2385Z" fill="#D2E9FF"/>
<path d="M69.5513 54.2683H46.4395V55.203H69.5513V54.2683Z" fill="#D2E9FF"/>
<path d="M69.5513 58.5786H46.4395V59.5167H69.5513V58.5786Z" fill="#D2E9FF"/>
<path d="M70.1291 64.3574H74.3242L69.5781 69.464V64.9082C69.578 64.8358 69.5922 64.7641 69.6199 64.6972C69.6475 64.6304 69.6881 64.5696 69.7393 64.5185C69.7905 64.4673 69.8512 64.4268 69.9181 64.3991C69.985 64.3715 70.0567 64.3573 70.1291 64.3574Z" fill="#D2E9FF"/>
<path d="M76.25 56.8563C76.25 56.8563 75.9107 57.6701 75.74 57.6701C75.5713 57.6701 75.207 56.8279 75.207 56.8279L76.25 56.8563Z" fill="#CDE3E8"/>
<path d="M76.2513 56.8795C76.6611 55.4634 76.9272 54.0097 77.0455 52.5403L74.4336 52.551C74.5773 54.0163 74.8399 55.4674 75.2189 56.89C75.8195 56.8829 76.1714 56.8829 76.2513 56.8795Z" fill="white"/>
<path d="M77.0325 52.6346C77.3044 51.2983 77.8321 32.0725 77.8321 32.0725L73.4805 32.0691C73.4805 32.0691 74.193 51.309 74.4649 52.6524C76.0091 52.6771 76.766 52.6417 77.0325 52.6346Z" fill="#D2E9FF"/>
<path d="M75.664 16.6806H75.6763L75.6781 16.6771L77.8601 16.5314C77.8601 16.3465 78.0219 13.7559 75.6763 13.7168H75.6516C73.3061 13.7559 73.4713 16.3465 73.4713 16.5314L75.6498 16.6771L75.6516 16.6806H75.664Z" fill="#004B92"/>
<path d="M75.6522 31.4664L76.2636 31.5339V31.406L77.8662 31.3526C77.8662 31.2211 77.9943 16.7929 77.8431 16.0964C76.8269 16.0714 76.1089 16.0714 75.6522 16.0785C75.1974 16.0714 74.4778 16.0714 73.4669 16.0964C73.3122 16.7929 73.5343 31.0932 73.5343 31.2247L75.0429 31.406V31.5339L75.6522 31.4664Z" fill="#D2E9FF"/>
<path d="M73.4498 31.0056H77.9969C78.0085 31.0056 78.0201 31.0079 78.0309 31.0124C78.0416 31.0168 78.0514 31.0234 78.0597 31.0316C78.0679 31.0399 78.0744 31.0496 78.0789 31.0604C78.0834 31.0712 78.0857 31.0827 78.0857 31.0944V32.1819C78.0857 32.1936 78.0834 32.2051 78.0789 32.2159C78.0744 32.2267 78.0679 32.2365 78.0597 32.2447C78.0514 32.253 78.0416 32.2595 78.0309 32.264C78.0201 32.2684 78.0085 32.2707 77.9969 32.2707H73.4408C73.4182 32.2707 73.3965 32.2617 73.3805 32.2457C73.3645 32.2297 73.3555 32.208 73.3555 32.1854V31.0999C73.3555 31.0875 73.3579 31.0752 73.3626 31.0638C73.3674 31.0523 73.3743 31.042 73.3831 31.0332C73.3918 31.0245 73.4022 31.0175 73.4137 31.0128C73.4251 31.008 73.4374 31.0056 73.4498 31.0056Z" fill="#004B92"/>
<path d="M39.9727 55.3562C39.9727 54.6275 40.1888 53.9152 40.5936 53.3093C40.9985 52.7034 41.5739 52.2312 42.2471 51.9523C42.9204 51.6735 43.6612 51.6005 44.3759 51.7427C45.0906 51.8849 45.747 52.2358 46.2623 52.7511C46.7776 53.2664 47.1284 53.9229 47.2706 54.6376C47.4127 55.3523 47.3397 56.0931 47.0608 56.7663C46.7819 57.4395 46.3097 58.0149 45.7037 58.4197C45.0978 58.8246 44.3855 59.0406 43.6568 59.0406C42.6796 59.0405 41.7426 58.6523 41.0517 57.9614C40.3608 57.2704 39.9726 56.3333 39.9727 55.3562Z" fill="#004B92"/>
<path d="M45.4471 58.8398C46.4102 61.439 47.53 64.9227 47.5323 68.6225C47.5497 70.5086 47.2195 72.3818 46.5584 74.1483C46.0488 75.4493 45.2436 76.6139 44.2065 77.5502C43.3309 79.2989 41.9791 80.7647 40.3067 81.7785C38.2693 83.0855 35.9066 83.7958 33.4862 83.8291C32.2844 83.8384 31.0913 83.6231 29.9684 83.1945C28.7115 82.758 27.5631 82.0564 26.6012 81.1371C25.6392 80.2179 24.8862 79.1025 24.3932 77.8667C23.831 76.2617 23.5649 74.568 23.608 72.8679L25.2449 72.7938C25.1305 73.8745 24.8447 75.6464 25.5419 77.4144C26.2452 79.178 27.5759 80.9258 30.4179 82.0449C31.3975 82.4178 32.4382 82.604 33.4862 82.5939C35.6716 82.5609 37.8044 81.9182 39.6441 80.7382C40.2646 80.3471 40.843 79.8928 41.3699 79.3826C40.0953 79.9445 38.7195 80.2406 37.3265 80.2526C35.8712 80.2772 34.4399 79.8796 33.2059 79.1079C31.8994 78.2458 30.9356 76.9538 30.4814 75.4559C30.1665 74.5209 30.0016 73.5418 29.993 72.5552C29.977 71.5557 30.1819 70.5649 30.593 69.6537C31.0042 68.7425 31.6115 67.9334 32.3716 67.2841C33.8944 66.0244 35.8163 65.3486 37.7923 65.3782C38.4059 65.3788 39.018 65.4388 39.62 65.5573C42.7421 66.1771 45.1026 69.2918 45.0998 73.2699C45.0993 73.6997 45.0726 74.129 45.0196 74.5555C45.1667 74.2817 45.2955 73.9985 45.4053 73.7077C46.0126 72.0818 46.3154 70.3581 46.2986 68.6225C46.3009 65.0949 45.1907 61.6836 44.2288 59.1045L45.4471 58.8398ZM33.175 68.2205C32.5496 68.7538 32.0504 69.4192 31.7135 70.1688C31.3765 70.9184 31.2102 71.7335 31.2265 72.5552C31.2363 73.4123 31.3806 74.2625 31.6543 75.0748C32.0213 76.3037 32.8082 77.3647 33.8777 78.0727C34.9119 78.7142 36.1097 79.0426 37.3265 79.0183C39.4807 78.9869 41.5558 78.2019 43.1914 76.7997C43.2652 76.6224 43.3306 76.4433 43.3876 76.2625C43.6975 75.2949 43.8583 74.2858 43.8643 73.2699C43.8609 69.7641 41.8106 67.2368 39.3831 66.7682C38.8591 66.6653 38.3264 66.6133 37.7923 66.6128H37.7895C36.1093 66.5845 34.4738 67.1543 33.175 68.2205Z" fill="#004B92"/>
<path d="M43.6175 50.9863C42.7503 50.9862 41.9026 51.2431 41.1815 51.7248C40.4604 52.2065 39.8983 52.8912 39.5663 53.6923C39.2344 54.4934 39.1475 55.375 39.3166 56.2255C39.4857 57.076 39.9032 57.8573 40.5164 58.4705C41.1296 59.0837 41.9108 59.5013 42.7613 59.6704C43.6118 59.8396 44.4934 59.7527 45.2945 59.4208C46.0957 59.089 46.7804 58.5269 47.2621 57.8059C47.7438 57.0848 48.0009 56.2371 48.0007 55.3699C48.0004 54.2075 47.5385 53.0927 46.7166 52.2707C45.8946 51.4487 44.7799 50.9867 43.6175 50.9863ZM43.6747 58.6935C43.0083 58.6936 42.3568 58.496 41.8027 58.1259C41.2486 57.7557 40.8167 57.2295 40.5616 56.6139C40.3065 55.9982 40.2398 55.3208 40.3697 54.6672C40.4997 54.0136 40.8206 53.4132 41.2917 52.942C41.7629 52.4708 42.3633 52.1499 43.0169 52.0199C43.6704 51.8898 44.3479 51.9566 44.9635 52.2116C45.5792 52.4666 46.1054 52.8984 46.4756 53.4525C46.8458 54.0066 47.0434 54.658 47.0434 55.3244C47.0432 56.2179 46.6882 57.0746 46.0565 57.7064C45.4248 58.3382 44.5681 58.6932 43.6747 58.6935Z" fill="#D2E9FF"/>
<path d="M43.7188 52.6055C43.2 52.6054 42.6929 52.7592 42.2616 53.0474C41.8302 53.3355 41.494 53.7451 41.2954 54.2244C41.0969 54.7036 41.0449 55.231 41.1461 55.7398C41.2472 56.2486 41.497 56.716 41.8638 57.0828C42.2306 57.4497 42.6979 57.6995 43.2067 57.8007C43.7155 57.9019 44.2429 57.85 44.7222 57.6515C45.2014 57.453 45.6111 57.1168 45.8993 56.6855C46.1875 56.2542 46.3414 55.7471 46.3414 55.2283C46.3413 54.5328 46.065 53.8657 45.5732 53.3738C45.0814 52.882 44.4144 52.6056 43.7188 52.6055ZM43.7188 56.9822C43.3719 56.982 43.0329 56.8789 42.7446 56.6861C42.4562 56.4932 42.2316 56.2192 42.099 55.8987C41.9664 55.5781 41.9318 55.2255 41.9996 54.8853C42.0674 54.5451 42.2345 54.2326 42.4799 53.9874C42.7253 53.7422 43.0378 53.5753 43.3781 53.5077C43.7183 53.4401 44.0709 53.475 44.3914 53.6078C44.7118 53.7406 44.9857 53.9654 45.1784 54.2539C45.371 54.5423 45.4739 54.8814 45.4738 55.2283C45.4738 55.4587 45.4284 55.6869 45.3402 55.8997C45.2519 56.1126 45.1226 56.306 44.9597 56.4689C44.7967 56.6317 44.6032 56.7609 44.3903 56.849C44.1774 56.9371 43.9492 56.9823 43.7188 56.9822Z" fill="white"/>
<path d="M45.1951 55.2284C45.195 55.5202 45.1083 55.8054 44.946 56.0479C44.7838 56.2904 44.5532 56.4794 44.2836 56.5909C44.014 56.7025 43.7173 56.7315 43.4311 56.6745C43.145 56.6174 42.8821 56.4768 42.6759 56.2704C42.4696 56.064 42.3292 55.801 42.2724 55.5148C42.2156 55.2286 42.2449 54.932 42.3566 54.6624C42.4684 54.3929 42.6575 54.1625 42.9002 54.0004C43.1429 53.8384 43.4281 53.7519 43.7199 53.752C43.9137 53.7519 44.1057 53.7901 44.2847 53.8643C44.4638 53.9385 44.6265 54.0473 44.7635 54.1844C44.9005 54.3215 45.0092 54.4843 45.0832 54.6634C45.1573 54.8426 45.1953 55.0345 45.1951 55.2284Z" fill="white"/>
<path d="M17.9289 59.1424C17.7767 58.7136 17.0894 58.8028 16.5149 59.0429C16.0557 59.2349 16.2972 59.7559 16.3996 60.1925C16.9071 62.2092 17.5458 64.1906 18.3118 66.124C19.0608 67.7872 20.8041 70.5216 24.6733 70.3236C27.3364 70.188 28.7991 69.1509 30.1024 66.1844C31.0467 64.0277 31.8087 61.7957 32.3804 59.5118C32.4059 59.2245 32.2898 59.0294 31.8918 58.9441C31.4943 58.8595 31.1267 58.7733 31.0048 59.0011C30.8823 59.228 29.2706 64.9962 28.39 66.445C27.5244 67.8688 26.6401 68.9025 24.6123 68.877C22.6453 68.8536 20.5203 68.2581 19.2127 63.7361C18.1264 59.9828 17.9289 59.1424 17.9289 59.1424Z" fill="#004B92"/>
<path d="M17.2114 58.3085C16.5765 56.0734 15.6163 52.3593 15.6171 49.1001C15.6171 48.893 15.6212 48.6901 15.6292 48.4935C15.7854 44.699 17.4355 43.4012 18.5301 43.1729C19.018 43.0801 19.514 43.0371 20.0105 43.0444C20.9012 43.0444 21.8108 43.1446 22.4645 43.2026L22.5261 42.661H22.5252C21.8834 42.6049 20.9498 42.5008 20.0105 42.5008C19.4655 42.493 18.9211 42.5414 18.3859 42.645C16.9084 42.9609 15.1651 44.5628 15.0123 48.4735C15.0035 48.6778 15 48.8869 15 49.1001C15.0857 52.2795 15.6063 55.4322 16.5471 58.4705L17.2114 58.3085Z" fill="white"/>
<path d="M21.7584 43.5638C21.6645 43.5232 21.6207 43.3498 21.6302 43.0471C21.6402 42.7438 21.6668 42.3553 21.8199 42.2943C22.2364 42.1206 22.6822 42.0277 23.1335 42.0205C23.391 42.0005 23.646 42.0834 23.8426 42.251C24.0391 42.4187 24.1612 42.6574 24.1821 42.9149C24.2094 43.0596 24.202 43.2087 24.1605 43.35C24.119 43.4913 24.0446 43.6208 23.9433 43.7277C23.842 43.8346 23.7168 43.916 23.5779 43.9651C23.4391 44.0142 23.2906 44.0296 23.1446 44.0102C22.6461 44.0171 22.1591 43.8603 21.7584 43.5638Z" fill="#004B92"/>
<path d="M34.0298 48.5684C33.9703 44.6557 32.265 43.0217 30.7958 42.6778C30.2625 42.5651 29.7192 42.5069 29.1741 42.5041C28.2353 42.4872 27.298 42.5737 26.6562 42.618L26.7046 43.1607C27.3589 43.1153 28.2717 43.0317 29.1612 43.0475C29.6578 43.0495 30.1528 43.102 30.6387 43.2042C31.728 43.4514 33.3454 44.7808 33.4129 48.5758C33.4163 48.7735 33.4152 48.9747 33.4095 49.1821C33.3345 52.475 32.2321 56.1568 31.5337 58.3668C31.6756 58.3908 32.1454 58.507 32.2951 58.533C33.2566 55.5037 33.8385 52.3668 34.0275 49.1941C34.0333 48.9809 34.0332 48.7721 34.0298 48.5684Z" fill="white"/>
<path d="M27.6836 43.4849C27.7757 43.4408 27.8124 43.2666 27.7894 42.9636C27.7677 42.6611 27.7247 42.2746 27.5694 42.22C27.1461 42.0629 26.6966 41.9887 26.2452 42.0014C25.7643 42.0529 25.2587 42.278 25.2341 42.9395C25.2131 43.0853 25.227 43.234 25.2745 43.3734C25.3221 43.5128 25.402 43.6389 25.5077 43.7414C25.6135 43.844 25.742 43.92 25.8828 43.9632C26.0236 44.0064 26.1726 44.0157 26.3177 43.9902C26.816 43.9757 27.2958 43.7982 27.6836 43.4849Z" fill="#004B92"/>
<path d="M22.3535 70.7134C22.4102 70.8512 23.6225 73.8249 23.6225 73.8249H25.13C25.13 73.8249 26.2768 70.8035 26.3128 70.707C25.7875 70.8587 25.2472 70.9523 24.7014 70.986C23.9089 71.0323 23.1144 70.94 22.3535 70.7134Z" fill="#004B92"/>
</svg>
