<svg width="96" height="96" viewBox="0 0 96 96" fill="none" xmlns="http://www.w3.org/2000/svg">
<path d="M0 20C0 8.9543 8.9543 0 20 0H76C87.0457 0 96 8.9543 96 20V76C96 87.0457 87.0457 96 76 96H20C8.9543 96 0 87.0457 0 76V20Z" fill="#75C5F0"/>
<path d="M39.2598 69.2889H48.5351V65.168H39.2598V69.2889Z" fill="#004B92"/>
<path d="M37.4699 71.9417C37.4626 72.0309 37.4907 72.1193 37.5482 72.1878C37.6056 72.2563 37.6878 72.2995 37.7768 72.3078H50.0193C50.1082 72.2993 50.1902 72.2561 50.2475 72.1876C50.3048 72.1191 50.3328 72.0307 50.3253 71.9417V70.1096C50.3323 70.021 50.3041 69.9332 50.2468 69.8652C50.1896 69.7972 50.1078 69.7544 50.0193 69.7461H37.7768C37.6882 69.7543 37.6063 69.797 37.5489 69.865C37.4914 69.933 37.4631 70.0209 37.4699 70.1096V71.9417Z" fill="#004B92"/>
<path d="M40.2522 10.4877C40.2479 10.6125 40.2931 10.734 40.378 10.8257C40.4629 10.9174 40.5806 10.9718 40.7055 10.977H46.8474C46.9719 10.9713 47.0892 10.9168 47.1736 10.8251C47.2581 10.7335 47.303 10.6122 47.2985 10.4877C47.303 10.3633 47.258 10.2422 47.1735 10.1508C47.089 10.0595 46.9718 10.0052 46.8474 10H40.7055C40.5808 10.0048 40.4631 10.0589 40.3782 10.1502C40.2932 10.2416 40.2479 10.363 40.2522 10.4877Z" fill="#004B92"/>
<path d="M46.5996 11.2461H40.9531V24.615H46.5996V11.2461Z" fill="#004B92"/>
<path d="M39.5039 25.271C39.5038 24.6917 39.7338 24.136 40.1433 23.7262C40.5529 23.3164 41.1084 23.0861 41.6878 23.0859H45.8617C46.441 23.0862 46.9965 23.3166 47.4061 23.7264C47.8156 24.1361 48.0457 24.6917 48.0457 25.271H39.5039Z" fill="white"/>
<path d="M48.0469 25.7656H39.5039V46.2115H48.0469V25.7656Z" fill="white"/>
<path d="M39.5039 46.8242H48.0469C48.0469 48.0307 45.4795 48.9803 45.5391 49.0082V49.8885H41.9808V48.9894C41.6952 48.8523 39.5039 47.9501 39.5039 46.8242Z" fill="#004B92"/>
<path d="M46.2598 56.4815C46.6084 56.4761 46.9556 56.4362 47.2964 56.3623C47.6416 56.3107 47.9815 56.2287 48.3122 56.1172L48.4476 56.869C47.8004 57.1463 47.0983 57.2715 46.3952 57.2352L46.2598 56.4815Z" fill="#004B92"/>
<path d="M45.0508 52.7899L45.7182 56.3147C46.7497 56.2602 47.7706 56.0795 48.758 55.7766L48.0945 52.25C48.0945 52.25 47.3852 52.4416 46.5929 52.5818C45.8053 52.7215 45.0508 52.7899 45.0508 52.7899Z" fill="#004B92"/>
<path d="M44.8125 52.6134C44.8815 52.7072 44.966 52.7885 45.0624 52.8537C45.5883 52.8232 46.1117 52.7591 46.6294 52.6617C47.1323 52.5848 47.629 52.471 48.1153 52.3212C48.1786 52.2537 48.2304 52.1762 48.2686 52.0918L44.8125 52.6134Z" fill="#004B92"/>
<path d="M41.4863 59.9653C41.8909 60.0282 42.3008 60.0505 42.7098 60.0319C43.1196 60.0409 43.5294 60.0125 43.9341 59.947L43.9432 60.8456C43.1388 61.0333 42.3027 61.0396 41.4955 60.8639L41.4863 59.9653Z" fill="#004B92"/>
<path d="M40.9019 53.4414L40.8945 59.6574C41.4916 59.7663 42.0997 59.802 42.7053 59.7636C43.3125 59.7929 43.921 59.7493 44.5178 59.6338L44.553 53.2791C43.9723 53.3761 43.3841 53.4214 42.7954 53.4144C41.8541 53.421 40.9934 53.4715 40.9019 53.4414Z" fill="#004B92"/>
<path d="M40.5352 53.1655C40.6543 53.3302 40.7909 53.4814 40.9426 53.6166C41.0337 53.6471 41.7006 53.631 42.6437 53.6245C43.5863 53.6188 44.4462 53.5587 44.4462 53.5587C44.5823 53.439 44.6923 53.2925 44.7694 53.1285C44.8466 52.9645 44.8892 52.7864 44.8947 52.6052L40.5352 53.1655Z" fill="#004B92"/>
<path d="M50.4883 57.0709C50.9122 57.0221 51.3301 56.9307 51.7356 56.798C52.1488 56.6944 52.5518 56.5535 52.9395 56.377L53.199 57.2765C52.8401 57.5194 52.4346 57.6851 52.0082 57.7632C51.606 57.9205 51.1752 57.9914 50.7438 57.9713L50.4883 57.0709Z" fill="#004B92"/>
<path d="M48.5879 52.6586L49.8087 56.9375C50.4376 56.8706 51.0574 56.7351 51.6569 56.5335C52.2732 56.3934 52.8718 56.1846 53.4416 55.9109L52.2281 51.6289C52.2281 51.6289 51.3852 51.9498 50.4426 52.2171C49.4974 52.4831 48.5879 52.6586 48.5879 52.6586Z" fill="#004B92"/>
<path d="M48.2276 52.0995C48.1943 52.1786 48.1541 52.2547 48.1074 52.3268C48.2276 52.5437 48.4662 52.8062 48.6695 52.8196C48.6695 52.8196 49.3483 52.7 50.452 52.3825C51.0553 52.2273 51.6465 52.0284 52.2209 51.7873C52.2813 51.6742 52.3255 51.5531 52.3524 51.4277L48.2276 52.0995Z" fill="#004B92"/>
<path d="M40.1855 52.8606L38.8354 51.8214C38.8234 51.7406 38.8438 51.6584 38.8922 51.5926C38.9406 51.5268 39.0129 51.4828 39.0936 51.4701L52.9866 49.2039C53.0672 49.1901 53.15 49.2088 53.2167 49.256C53.2835 49.3032 53.3288 49.375 53.3427 49.4555L52.3879 50.9567L40.1855 52.8606Z" fill="white"/>
<path d="M39.63 51.1298L52.3702 49.0527L52.2879 48.5476C52.2738 48.4626 52.2266 48.3868 52.1567 48.3366C52.0867 48.2864 51.9998 48.266 51.9148 48.2799L39.8159 50.2534C39.7306 50.2676 39.6544 50.315 39.6041 50.3853C39.5537 50.4555 39.5333 50.5429 39.5473 50.6283L39.63 51.1298Z" fill="white"/>
<path d="M45.6688 62.9085C45.9904 62.755 46.302 62.5815 46.6018 62.3891C46.62 62.3763 46.6353 62.36 46.647 62.3411C46.6587 62.3223 46.6665 62.3013 46.67 62.2794C46.6734 62.2574 46.6724 62.235 46.6671 62.2135C46.6617 62.192 46.6521 62.1717 46.6389 62.154C46.6259 62.1358 46.6094 62.1204 46.5904 62.1086C46.5714 62.0969 46.5503 62.0891 46.5282 62.0856C46.5062 62.0822 46.4836 62.0832 46.462 62.0886C46.4403 62.094 46.4199 62.1036 46.402 62.117C46.1188 62.2967 45.8249 62.4593 45.5221 62.6037C45.2107 62.7761 44.8734 62.8966 44.5233 62.9608C44.3919 62.9608 43.5089 62.8236 42.4849 62.6525C41.4517 62.4814 40.2518 62.2759 39.4107 62.1387C38.8433 62.0464 38.4624 61.9859 38.3422 61.9824C38.1747 61.9999 38.0124 62.0513 37.8654 62.1336C37.6883 62.2193 37.4901 62.3308 37.3025 62.4418C36.9303 62.6634 36.1105 63.124 36.1096 63.1254C36.0726 63.1503 36.047 63.1888 36.0384 63.2325C36.0297 63.2762 36.0387 63.3216 36.0634 63.3587C36.0886 63.3957 36.1274 63.4214 36.1714 63.4301C36.2154 63.4388 36.261 63.4299 36.2985 63.4053C36.3007 63.4044 37.5224 62.6734 38.0122 62.4374C38.114 62.3826 38.2233 62.3432 38.3366 62.3203C38.3849 62.319 38.8033 62.3799 39.3558 62.4723C39.9157 62.5628 40.6354 62.6851 41.359 62.8058C42.8162 63.0505 44.2486 63.2921 44.5177 63.2982C44.9219 63.2396 45.3121 63.1075 45.6688 62.9085Z" fill="white"/>
<path d="M36.3843 62.0762H35.1914V63.4872H36.3843V62.0762Z" fill="#004B92"/>
<path d="M35.026 61.1816H36.5455C36.632 61.1816 36.7149 61.216 36.7761 61.2772C36.8372 61.3383 36.8716 61.4212 36.8716 61.5077V62.1574C36.8716 62.2439 36.8372 62.3268 36.7761 62.388C36.7149 62.4491 36.632 62.4835 36.5455 62.4835H35.0281C34.9414 62.4835 34.8583 62.449 34.7969 62.3877C34.7356 62.3264 34.7012 62.2432 34.7012 62.1565V61.5065C34.7012 61.4638 34.7096 61.4216 34.7259 61.3822C34.7422 61.3428 34.7661 61.3069 34.7963 61.2768C34.8265 61.2466 34.8623 61.2227 34.9017 61.2064C34.9411 61.19 34.9833 61.1816 35.026 61.1816Z" fill="#004B92"/>
<path d="M48.5561 82.2318C48.5555 82.318 48.5209 82.4004 48.4598 82.4612C48.3987 82.5219 48.3161 82.5561 48.23 82.5562H38.8732C38.7873 82.5559 38.7049 82.5217 38.6442 82.4609C38.5834 82.4001 38.5491 82.3178 38.5488 82.2318V78.488C38.5498 78.4772 38.5515 78.4664 38.5541 78.4558C38.9668 78.7105 41.0397 78.9029 43.5431 78.9029C46.0819 78.9029 48.1795 78.704 48.5495 78.4453C48.5534 78.4592 48.5556 78.4736 48.5561 78.488V82.2318Z" fill="white"/>
<path d="M38.5835 77.7588L38.6091 77.8664C38.839 78.2077 40.9589 78.4289 43.5612 78.4289C46.1638 78.4289 48.2494 78.192 48.4792 77.8516C48.4792 77.8516 48.5232 77.7105 48.5067 77.6892C48.5075 77.4452 48.4518 77.2043 48.3439 76.9854C48.236 76.7664 48.0789 76.5755 47.8849 76.4274C47.5232 76.1284 45.8295 75.8867 43.5668 75.8867C41.3825 75.8867 39.7128 76.1184 39.3123 76.4017C39.08 76.5415 38.8897 76.7413 38.7614 76.9801C38.6331 77.219 38.5716 77.488 38.5835 77.7588ZM40.409 76.6647C42.4582 76.0448 44.6448 76.0436 46.6947 76.6612C45.65 76.7972 44.5972 76.8607 43.5438 76.8515C42.4958 76.8604 41.4485 76.798 40.409 76.6647Z" fill="white"/>
<path d="M25.6328 83.0004H34.7458V74.2175H34.7428C34.7428 74.2079 34.7458 74.1983 34.7458 74.1892C34.7457 73.6962 34.5498 73.2233 34.2011 72.8747C33.8525 72.5261 33.3797 72.3302 32.8867 72.3301C32.5138 72.3385 32.1506 72.451 31.8383 72.655C31.526 72.859 31.277 73.1462 31.1195 73.4843L25.6328 83.0004ZM31.7077 74.4595C31.7078 74.238 31.7736 74.0215 31.8967 73.8374C32.0198 73.6533 32.1947 73.5097 32.3994 73.425C32.6041 73.3403 32.8292 73.3181 33.0465 73.3613C33.2637 73.4045 33.4633 73.5112 33.62 73.6678C33.7766 73.8244 33.8833 74.0239 33.9266 74.2412C33.9699 74.4584 33.9478 74.6836 33.8631 74.8883C33.7784 75.0929 33.635 75.2679 33.4509 75.3911C33.2668 75.5143 33.0503 75.5801 32.8288 75.5803C32.6816 75.5803 32.5358 75.5514 32.3998 75.4951C32.2638 75.4388 32.1402 75.3563 32.036 75.2522C31.9319 75.1481 31.8493 75.0245 31.793 74.8885C31.7367 74.7525 31.7077 74.6068 31.7077 74.4595Z" fill="white"/>
<path d="M32.1191 74.4385C32.1189 74.5707 32.1578 74.7001 32.231 74.8102C32.3042 74.9202 32.4084 75.0062 32.5304 75.057C32.6524 75.1079 32.7868 75.1215 32.9165 75.096C33.0462 75.0705 33.1655 75.0072 33.2592 74.9139C33.3529 74.8207 33.4169 74.7017 33.443 74.5721C33.4691 74.4425 33.4563 74.3081 33.406 74.1858C33.3557 74.0636 33.2703 73.9589 33.1606 73.8852C33.0509 73.8114 32.9218 73.7719 32.7896 73.7715C32.6123 73.7713 32.4421 73.8414 32.3165 73.9664C32.1908 74.0914 32.1198 74.2612 32.1191 74.4385Z" fill="#004B92"/>
<path d="M31.5469 35.5685C31.5469 36.0881 31.701 36.596 31.9896 37.028C32.2783 37.46 32.6886 37.7967 33.1686 37.9956C33.6487 38.1944 34.1769 38.2464 34.6865 38.145C35.1961 38.0437 35.6642 37.7935 36.0316 37.4261C36.399 37.0586 36.6492 36.5905 36.7505 36.0809C36.8519 35.5713 36.7999 35.0431 36.601 34.5631C36.4022 34.0831 36.0654 33.6728 35.6334 33.3841C35.2014 33.0955 34.6935 32.9414 34.1739 32.9414C33.8288 32.9412 33.4871 33.009 33.1683 33.141C32.8495 33.273 32.5598 33.4665 32.3159 33.7104C32.0719 33.9544 31.8784 34.2441 31.7464 34.5629C31.6145 34.8818 31.5467 35.2235 31.5469 35.5685ZM33.3118 35.5685C33.312 35.3983 33.3627 35.2319 33.4575 35.0904C33.5522 34.949 33.6868 34.8388 33.8441 34.7738C34.0015 34.7088 34.1746 34.6919 34.3415 34.7253C34.5085 34.7586 34.6618 34.8407 34.7821 34.9612C34.9024 35.0817 34.9843 35.2351 35.0174 35.4021C35.0505 35.5691 35.0333 35.7422 34.9681 35.8994C34.9029 36.0567 34.7925 36.1911 34.6509 36.2856C34.5093 36.3802 34.3429 36.4306 34.1726 36.4306C33.9443 36.4301 33.7254 36.3391 33.564 36.1775C33.4026 36.0159 33.312 35.7969 33.3118 35.5685Z" fill="#004B92"/>
<path d="M33.5801 35.5693C33.5798 35.6865 33.6144 35.8012 33.6793 35.8987C33.7442 35.9963 33.8367 36.0724 33.9449 36.1174C34.0531 36.1624 34.1723 36.1742 34.2872 36.1514C34.4022 36.1287 34.5078 36.0723 34.5907 35.9895C34.6736 35.9066 34.7301 35.801 34.7529 35.6861C34.7758 35.5711 34.764 35.452 34.7191 35.3437C34.6742 35.2355 34.5982 35.143 34.5007 35.078C34.4032 35.013 34.2885 34.9783 34.1713 34.9785C34.0146 34.9785 33.8642 35.0407 33.7534 35.1515C33.6425 35.2623 33.5802 35.4126 33.5801 35.5693ZM33.7873 35.1587C33.8 35.1509 33.8152 35.1482 33.8299 35.151C33.8446 35.1538 33.8576 35.162 33.8666 35.174L34.558 35.885C34.5819 35.912 34.5893 35.9472 34.571 35.9638C34.5527 35.9825 34.5179 35.9759 34.4918 35.9502L33.8004 35.2384C33.7751 35.2114 33.7699 35.1762 33.7873 35.1587Z" fill="white"/>
<path d="M29.3145 42.3493C29.3142 42.5694 29.3792 42.7846 29.5013 42.9677C29.6233 43.1508 29.7969 43.2936 30.0002 43.378C30.2034 43.4624 30.4271 43.4846 30.643 43.4419C30.8589 43.3991 31.0572 43.2933 31.2129 43.1378C31.3686 42.9823 31.4747 42.784 31.5178 42.5682C31.5608 42.3524 31.5389 42.1287 31.4547 41.9253C31.3706 41.722 31.228 41.5482 31.045 41.4259C30.8621 41.3036 30.647 41.2383 30.4269 41.2383C30.2809 41.2382 30.1363 41.2668 30.0014 41.3226C29.8665 41.3784 29.7438 41.4602 29.6405 41.5634C29.5372 41.6665 29.4553 41.789 29.3993 41.9239C29.3434 42.0587 29.3145 42.2033 29.3145 42.3493Z" fill="#004B92"/>
<path d="M17 56.2558C17 64.9552 22.6121 73.6454 26.8027 78.8779L30.432 72.5731C30.7114 72.0833 31.1233 71.6823 31.6205 71.4164C32.1177 71.1504 32.6799 71.0302 33.2423 71.0697C34.6739 71.0936 35.7876 72.2796 35.7406 74.4187C35.7406 74.4295 35.7711 80.9411 35.7189 84.1511L36.5539 84.1468V65.3844C34.8958 65.5807 33.2221 65.6068 31.5587 65.4623C28.0648 65.2669 25.2383 60.4254 24.6566 54.6079C24.0754 48.7903 27.6312 47.33 29.9587 46.7484C31.7216 46.3068 36.6161 46.3151 38.8858 46.3456V28.502C35.3991 28.505 32.0071 29.6362 29.2164 31.7264C25.5339 34.5381 17 42.7785 17 56.2558ZM34.1406 38.9637C33.4758 38.9637 32.8259 38.7665 32.2731 38.3971C31.7203 38.0277 31.2895 37.5027 31.0352 36.8884C30.7808 36.2742 30.7143 35.5983 30.844 34.9462C30.9738 34.2942 31.294 33.6953 31.7642 33.2252C32.2344 32.7552 32.8334 32.4351 33.4855 32.3055C34.1375 32.1758 34.8134 32.2425 35.4276 32.497C36.0418 32.7515 36.5667 33.1825 36.936 33.7353C37.3053 34.2882 37.5023 34.9381 37.5022 35.603C37.5022 36.0444 37.4153 36.4815 37.2464 36.8893C37.0774 37.2971 36.8298 37.6677 36.5176 37.9798C36.2055 38.2919 35.8349 38.5394 35.427 38.7082C35.0192 38.8771 34.582 38.9639 34.1406 38.9637ZM28.5354 42.3545C28.5353 41.9766 28.6473 41.6071 28.8572 41.2929C29.0671 40.9787 29.3655 40.7337 29.7146 40.5891C30.0637 40.4444 30.4479 40.4065 30.8185 40.4802C31.1892 40.5539 31.5296 40.7359 31.7968 41.0031C32.064 41.2703 32.246 41.6108 32.3197 41.9814C32.3934 42.3521 32.3555 42.7362 32.2109 43.0853C32.0662 43.4344 31.8213 43.7328 31.507 43.9427C31.1928 44.1526 30.8234 44.2646 30.4455 44.2645C30.1946 44.2646 29.9462 44.2153 29.7144 44.1193C29.4826 44.0234 29.272 43.8827 29.0946 43.7053C28.9172 43.5279 28.7766 43.3173 28.6806 43.0855C28.5847 42.8538 28.5353 42.6053 28.5354 42.3545Z" fill="#004B92"/>
<path d="M19.8968 81.207H56.5135C56.6426 81.207 56.7663 81.2583 56.8576 81.3496C56.9489 81.4408 57.0001 81.5646 57.0001 81.6937V85.2752C57.0001 85.4046 56.9488 85.5286 56.8573 85.62C56.7659 85.7114 56.6419 85.7628 56.5126 85.7628H19.8999C19.77 85.7628 19.6455 85.7112 19.5536 85.6193C19.4618 85.5275 19.4102 85.4029 19.4102 85.273V81.6937C19.4102 81.5646 19.4614 81.4408 19.5527 81.3496C19.644 81.2583 19.7678 81.207 19.8968 81.207Z" fill="#004B92"/>
<path d="M32.3519 63.2695H56.5022C56.5686 63.2695 56.6322 63.2959 56.6792 63.3428C56.7261 63.3898 56.7525 63.4534 56.7525 63.5198V65.3611C56.7525 65.3941 56.746 65.4269 56.7333 65.4574C56.7207 65.4879 56.7021 65.5157 56.6788 65.539C56.6554 65.5624 56.6277 65.5809 56.5971 65.5936C56.5666 65.6062 56.5339 65.6127 56.5008 65.6127H32.3541C32.2871 65.6127 32.2229 65.5861 32.1755 65.5388C32.1282 65.4914 32.1016 65.4272 32.1016 65.3602V63.5198C32.1016 63.4534 32.1279 63.3898 32.1749 63.3428C32.2218 63.2959 32.2855 63.2695 32.3519 63.2695Z" fill="white"/>
<path d="M75.7302 82.6174C75.7302 83.1522 73.8783 83.4939 71.59 83.5065C69.3052 83.5201 67.4508 83.1994 67.4473 82.6645C67.4473 82.1309 69.3016 81.8494 71.5887 81.8364C73.8747 81.8238 75.7302 82.0856 75.7302 82.6174Z" fill="white"/>
<path d="M75.7264 82.92C75.4569 83.4048 73.6694 83.7339 71.5719 83.7464C69.2847 83.7589 67.4112 83.4686 67.4102 82.9064C67.4102 82.8985 67.428 83.2969 67.428 83.2969H67.4304C67.4483 83.8567 69.3002 84.1888 71.573 84.1763C73.8471 84.1637 75.6931 83.8125 75.7074 83.251L75.7097 83.2503V83.2444L75.7109 83.2431L75.7097 83.2414C75.7097 83.2414 75.7527 82.8764 75.7264 82.92Z" fill="white"/>
<path d="M71.4567 82.7323L70.2296 82.7633L70.2214 78.1751C69.8033 77.1404 69.5288 76.0533 69.4057 74.9441C69.333 73.59 69.3306 73.59 69.3008 58.9102C69.3008 58.9102 70.5266 58.9763 71.6058 58.9716C71.6321 73.2282 71.4567 82.7323 71.4567 82.7323Z" fill="white"/>
<path d="M73.1007 59.0937C73.103 59.4598 73.2485 74.4372 73.1985 75.3251C73.146 76.2188 72.9683 77.6265 72.8633 78.1816C72.8645 78.8273 72.8717 82.5747 72.8717 82.9474L73.2235 82.6504C73.2235 82.6504 73.2401 79.7098 73.2163 78.305C73.6209 77.2713 73.8377 76.1738 73.8567 75.0639C73.8651 74.0419 73.8841 58.9648 73.8841 58.9648L73.1007 59.0937Z" fill="white"/>
<path opacity="0.6" d="M71.4873 59.0171L72.7001 58.9062C72.7001 58.9062 72.8705 74.3237 72.8193 75.2187C72.7621 76.1125 72.588 77.5195 72.4806 78.0746C72.4829 78.7555 72.4949 82.7557 72.4949 82.7557L71.2773 82.9328L71.4873 59.0171Z" fill="white"/>
<path d="M68.4414 46.5371H74.5469V58.7481H68.4414V46.5371Z" fill="#F53B47"/>
<path d="M74.3548 58.7888L68.7658 58.8199C68.724 58.8199 68.687 58.886 68.687 58.9641C68.687 59.044 68.724 59.1096 68.7658 59.1096L69.0055 59.1072L68.9947 59.5574L68.755 59.5586C68.7435 59.5595 68.7323 59.5626 68.722 59.5679C68.7117 59.5732 68.7027 59.5806 68.6953 59.5895C68.688 59.5984 68.6825 59.6087 68.6792 59.6198C68.676 59.6309 68.675 59.6425 68.6764 59.654C68.6764 59.7113 68.7157 59.7982 68.7598 59.7982L68.9983 59.7965L69.0055 60.1578L68.7693 60.1584C68.745 60.1626 68.7232 60.1758 68.7082 60.1953C68.6931 60.2149 68.686 60.2394 68.6882 60.2639C68.6919 60.3218 68.7252 60.3706 68.7693 60.3688L74.3585 60.3378C74.4013 60.3378 74.436 60.2908 74.436 60.2335C74.436 60.1745 74.3978 60.1274 74.3585 60.1286H74.1188L74.1176 59.75L74.3585 59.7475C74.4013 59.7475 74.436 59.7011 74.436 59.642C74.4386 59.6176 74.4318 59.5932 74.4169 59.5737C74.402 59.5542 74.3803 59.5411 74.3561 59.5371L74.1176 59.5394L74.1164 59.0792L74.3548 59.078C74.3954 59.078 74.436 59.0124 74.436 58.9332C74.4348 58.8532 74.3954 58.7876 74.3548 58.7888Z" fill="white"/>
<path d="M68.004 74.0798L67.9609 46.7625C67.9607 46.7369 67.9655 46.7115 67.9752 46.6877C67.9849 46.664 67.9992 46.6424 68.0173 46.6243C68.0354 46.6061 68.0569 46.5918 68.0806 46.582C68.1043 46.5723 68.1297 46.5673 68.1554 46.5675L74.8129 46.5293C74.8642 46.5294 74.9134 46.5495 74.9501 46.5853C74.9684 46.6034 74.9828 46.625 74.9926 46.6488C75.0025 46.6725 75.0074 46.698 75.0073 46.7237L75.0728 73.9724C75.0725 74.0039 75.0645 74.0349 75.0496 74.0626C75.0346 74.0903 75.0131 74.114 74.987 74.1315C74.5938 74.3394 74.157 74.4513 73.7123 74.4583C72.9949 74.5342 72.2741 74.573 71.5527 74.5745C70.7973 74.5942 70.0414 74.5611 69.2906 74.4756C68.9025 74.4362 68.518 74.3658 68.141 74.2651C68.1118 74.2553 68.085 74.2395 68.0623 74.2186C68.0438 74.2006 68.029 74.179 68.019 74.1551C68.009 74.1313 68.0039 74.1056 68.004 74.0798ZM68.3926 73.9294C68.7046 74.0006 69.0203 74.0544 69.3382 74.0904C70.0705 74.1735 70.8077 74.2055 71.5444 74.1859C72.2534 74.1843 72.9619 74.1463 73.667 74.0719C73.9659 74.0516 74.2613 73.996 74.5471 73.9062C74.6067 73.886 74.6484 73.8692 74.6805 73.8556L74.6186 46.9175L68.3485 46.9557L68.3926 73.9294Z" fill="white"/>
<path d="M67.9764 46.7587L67.9609 46.7211L67.9741 46.6662C67.9898 46.6035 68.0214 46.546 68.0659 46.4992C68.1902 46.3891 68.339 46.3104 68.4999 46.2697C68.9746 46.1492 69.7497 46.0419 70.1574 45.9209C70.219 45.9068 70.279 45.8864 70.3363 45.8601C70.3471 45.513 70.3769 43.9199 70.3769 43.9169V43.7285L72.7011 43.7148V43.9103C72.7011 43.9122 72.707 45.3891 72.7214 45.8183L72.7272 45.8201C72.7762 45.8404 72.8477 45.8631 72.9324 45.8892C73.1017 45.9388 73.3307 45.9955 73.5704 46.0462C74.0465 46.0919 74.5098 46.2257 74.937 46.4408C74.9888 46.4855 75.0212 46.5485 75.0275 46.6167L75.036 46.6882V58.8133L74.8403 58.8139L75.036 58.8133V59.0083L68.0254 59.0507L67.9764 46.7587ZM68.4118 58.6619L74.6472 58.6214L74.6519 46.7157L74.6472 46.7031C74.2699 46.5792 73.883 46.4867 73.4904 46.4265C73.1114 46.3752 72.7442 46.2582 72.4054 46.0807C72.4025 46.0736 72.3974 46.0675 72.3909 46.0634C72.3595 46.0324 72.3408 45.9907 72.3386 45.9465C72.3206 45.7754 72.3183 44.5806 72.3135 44.1072L70.7597 44.1149C70.7502 44.599 70.7264 45.8512 70.7251 45.9399C70.7218 46.0045 70.6941 46.0655 70.6476 46.1105C70.3683 46.2822 70.0534 46.3874 69.727 46.4181C69.3323 46.4975 68.8863 46.5738 68.6037 46.6441C68.5185 46.6684 68.4373 46.7052 68.3628 46.7533L68.4118 58.6619Z" fill="white"/>
<path d="M71.7672 38.8178L71.3362 38.8214L71.3203 27L71.755 28.0575L71.7672 38.8178Z" fill="#004B92"/>
<path d="M72.0875 39.3337C72.0875 39.3337 72.0112 39.0183 71.9934 38.9688C71.9591 38.9715 71.9251 38.9773 71.8919 38.9861L71.7632 39.221L71.7679 41.306C71.7566 41.3557 71.7289 41.4001 71.6892 41.432C71.6495 41.4639 71.6002 41.4815 71.5493 41.4819C71.4984 41.4823 71.4488 41.4655 71.4086 41.4342C71.3684 41.403 71.34 41.359 71.3279 41.3096L71.3219 39.2544L71.1729 38.9981C71.1729 38.9981 71.0811 38.9646 71.0691 38.9741C71.0187 39.1026 70.9843 39.2368 70.9666 39.3737C70.9015 39.3797 70.8377 39.3949 70.777 39.419C70.7554 40.0096 70.7789 40.601 70.8474 41.188C70.8831 41.4289 70.6232 41.6882 70.5111 41.9261C70.4002 42.1652 70.1641 44.6188 70.1641 44.6825C70.1641 44.6825 70.3942 44.6885 71.5593 44.7135C72.5764 44.7046 72.8937 44.6707 72.8937 44.6707C72.8865 44.6057 72.71 42.1623 72.5979 41.9244C72.4786 41.6882 72.1948 41.4003 72.2294 41.1588C72.2932 40.567 72.3096 39.971 72.2784 39.3766C72.2168 39.3542 72.1527 39.3398 72.0875 39.3337Z" fill="white"/>
<path d="M71.1387 38.9896C71.1363 38.8406 71.3127 38.7083 71.5286 38.707C71.7468 38.707 71.9257 38.8328 71.9257 38.9819C71.9257 38.9819 71.7241 39.0003 71.5071 38.9985C71.2889 38.9968 71.1387 38.9896 71.1387 38.9896Z" fill="white"/>
<path d="M73.1307 44.6682C73.1307 44.729 73.0688 44.7785 72.9877 44.7809L70.0208 44.797C69.9874 44.8007 69.9538 44.7912 69.9273 44.7705C69.9008 44.7498 69.8834 44.7195 69.8789 44.6862C69.8835 44.6528 69.9008 44.6225 69.9273 44.6017C69.9538 44.5809 69.9873 44.5712 70.0208 44.5747L72.9877 44.5573C73.0212 44.5539 73.0548 44.5634 73.0814 44.5841C73.1081 44.6048 73.1257 44.6349 73.1307 44.6682Z" fill="white"/>
<path opacity="0.92" d="M69.2636 48.2212C69.2313 48.2212 69.2051 48.2016 69.2051 48.177C69.2069 48.1636 69.2139 48.1513 69.2246 48.143C69.2353 48.1346 69.2489 48.1308 69.2624 48.1323L72.7814 48.1133C72.8135 48.1133 72.8386 48.1323 72.8386 48.1557C72.8386 48.1807 72.8135 48.2016 72.779 48.2016L69.2636 48.2212Z" fill="white"/>
<path opacity="0.92" d="M69.2742 52.9086C69.2408 52.9086 69.2146 52.8877 69.2169 52.8633C69.2169 52.8377 69.2407 52.8186 69.273 52.8186L72.7919 52.799C72.8052 52.798 72.8183 52.8021 72.8285 52.8106C72.8388 52.819 72.8454 52.8311 72.8469 52.8443C72.8492 52.8687 72.823 52.8877 72.7919 52.8877L69.2742 52.9086Z" fill="white"/>
<path opacity="0.92" d="M69.2837 57.6998C69.2771 57.7007 69.2703 57.7003 69.2638 57.6986C69.2573 57.6968 69.2512 57.6938 69.2459 57.6897C69.2406 57.6856 69.2361 57.6805 69.2328 57.6746C69.2295 57.6688 69.2274 57.6623 69.2266 57.6556C69.2273 57.6489 69.2294 57.6424 69.2327 57.6365C69.236 57.6306 69.2404 57.6254 69.2457 57.6213C69.251 57.6171 69.2572 57.614 69.2637 57.6123C69.2702 57.6105 69.277 57.61 69.2837 57.6109L72.8028 57.5901C72.8093 57.5894 72.8159 57.5901 72.8221 57.5921C72.8283 57.594 72.8341 57.5972 72.8391 57.6014C72.8441 57.6057 72.8482 57.6108 72.8512 57.6167C72.8542 57.6225 72.8559 57.6288 72.8564 57.6354C72.855 57.6483 72.8486 57.6602 72.8386 57.6686C72.8286 57.6769 72.8158 57.6811 72.8028 57.6802L69.2837 57.6998Z" fill="white"/>
<path opacity="0.92" d="M69.2648 49.1022C69.2512 49.1035 69.2376 49.0998 69.2266 49.0918C69.2156 49.0838 69.2079 49.0719 69.2051 49.0586C69.2078 49.0446 69.2157 49.0321 69.2271 49.0236C69.2386 49.0151 69.2529 49.0112 69.2671 49.0127L70.8555 49.002C70.8853 49.0044 70.9115 49.0228 70.9115 49.0473C70.9097 49.0604 70.9028 49.0724 70.8924 49.0806C70.882 49.0888 70.8687 49.0927 70.8555 49.0915L69.2648 49.1022Z" fill="white"/>
<path opacity="0.92" d="M69.2674 50.0586C69.2328 50.0574 69.209 50.0384 69.209 50.0144C69.211 50.0008 69.2182 49.9884 69.229 49.9798C69.2399 49.9713 69.2536 49.9672 69.2674 49.9685L70.8558 49.959C70.8856 49.962 70.913 49.9793 70.9118 50.0061C70.913 50.0299 70.8868 50.0479 70.8558 50.0502L69.2674 50.0586Z" fill="white"/>
<path opacity="0.92" d="M69.2698 51.013C69.2634 51.0141 69.2568 51.0138 69.2504 51.0122C69.2441 51.0106 69.2381 51.0076 69.233 51.0036C69.2278 50.9996 69.2235 50.9945 69.2204 50.9888C69.2174 50.983 69.2155 50.9766 69.215 50.9701C69.2126 50.9445 69.2376 50.9242 69.2698 50.9242L70.8582 50.9141C70.888 50.9158 70.9154 50.9349 70.9154 50.9606C70.9132 50.9737 70.906 50.9855 70.8954 50.9935C70.8847 51.0015 70.8715 51.005 70.8582 51.0034L69.2698 51.013Z" fill="white"/>
<path opacity="0.92" d="M69.272 51.9676C69.2374 51.9688 69.2148 51.9485 69.2148 51.9241C69.2165 51.9105 69.2233 51.8981 69.234 51.8895C69.2447 51.8809 69.2583 51.8769 69.272 51.8782L70.8604 51.8693C70.8734 51.8683 70.8864 51.8723 70.8966 51.8805C70.9068 51.8886 70.9134 51.9004 70.9152 51.9134C70.9152 51.9384 70.8939 51.9575 70.8581 51.9599L69.272 51.9676Z" fill="white"/>
<path opacity="0.92" d="M69.2748 53.8799C69.2683 53.8808 69.2616 53.8804 69.2552 53.8787C69.2488 53.877 69.2428 53.874 69.2376 53.87C69.2324 53.8659 69.228 53.8608 69.2248 53.8551C69.2216 53.8493 69.2195 53.8429 69.2188 53.8363C69.2176 53.8119 69.2438 53.791 69.2748 53.791L70.8643 53.7815C70.8775 53.7802 70.8906 53.784 70.9011 53.7921C70.9115 53.8002 70.9184 53.812 70.9204 53.8251C70.9198 53.8318 70.9179 53.8383 70.9147 53.8442C70.9115 53.8501 70.9072 53.8553 70.902 53.8595C70.8967 53.8636 70.8907 53.8667 70.8842 53.8685C70.8778 53.8703 70.871 53.8707 70.8643 53.8698L69.2748 53.8799Z" fill="white"/>
<path opacity="0.92" d="M69.2748 54.8341C69.2616 54.8351 69.2485 54.8312 69.2382 54.823C69.2278 54.8148 69.2209 54.8031 69.2188 54.7901C69.2204 54.7766 69.2271 54.7644 69.2375 54.7558C69.248 54.7473 69.2613 54.7431 69.2748 54.7441L70.8631 54.7363C70.8953 54.7363 70.9216 54.756 70.9191 54.7822C70.9216 54.8056 70.8965 54.8252 70.8643 54.8252L69.2748 54.8341Z" fill="white"/>
<path opacity="0.92" d="M69.2782 55.7899C69.2653 55.7912 69.2525 55.7874 69.2424 55.7793C69.2324 55.7711 69.226 55.7593 69.2246 55.7465C69.225 55.7399 69.2267 55.7334 69.2296 55.7275C69.2326 55.7216 69.2366 55.7163 69.2416 55.7119C69.2466 55.7076 69.2524 55.7043 69.2587 55.7023C69.265 55.7002 69.2716 55.6994 69.2782 55.6999L70.8703 55.6916C70.8768 55.691 70.8832 55.6917 70.8895 55.6936C70.8957 55.6955 70.9014 55.6986 70.9064 55.7028C70.9114 55.7069 70.9155 55.712 70.9185 55.7178C70.9215 55.7236 70.9233 55.7299 70.9239 55.7363C70.9233 55.7429 70.9214 55.7493 70.9183 55.7551C70.9152 55.761 70.9109 55.7661 70.9059 55.7703C70.9008 55.7745 70.8949 55.7777 70.8886 55.7796C70.8823 55.7816 70.8756 55.7823 70.8691 55.7816L69.2782 55.7899Z" fill="white"/>
<path opacity="0.92" d="M69.2807 56.7451C69.2484 56.7451 69.2246 56.7255 69.2246 56.7023C69.2262 56.6888 69.2329 56.6764 69.2433 56.6678C69.2538 56.6591 69.2671 56.6548 69.2807 56.6557L70.8703 56.6468C70.8769 56.646 70.8836 56.6466 70.8899 56.6485C70.8963 56.6504 70.9023 56.6535 70.9074 56.6578C70.9125 56.662 70.9167 56.6672 70.9198 56.6731C70.9228 56.679 70.9246 56.6855 70.9251 56.6921C70.9239 56.7049 70.9177 56.7167 70.9079 56.725C70.8981 56.7332 70.8854 56.7373 70.8726 56.7362L69.2807 56.7451Z" fill="white"/>
<path d="M73.697 48.4668L73.6959 48.0099L73.5922 48.1262L73.5039 48.0767L73.7198 47.8359H73.8068L73.8092 48.4649L73.697 48.4668Z" fill="white"/>
<path d="M73.3973 52.7442C73.4093 52.6815 73.4443 52.6255 73.4955 52.5874C73.5467 52.5493 73.6104 52.5319 73.6739 52.5385C73.9744 52.5368 74.0567 52.7955 73.8421 52.9159C73.73 52.9904 73.7014 53.0053 73.5881 53.0816L73.9494 53.0793V53.1664L73.3949 53.1699L73.3926 53.1014L73.7657 52.8479V52.8462C73.8898 52.7753 73.8588 52.6286 73.6739 52.6286C73.6368 52.6243 73.5994 52.6344 73.5695 52.6568C73.5396 52.6792 73.5194 52.7122 73.513 52.749L73.3973 52.7442Z" fill="white"/>
<path d="M73.5872 57.5139L73.7053 57.5128C73.7188 57.5145 73.7326 57.5135 73.7457 57.5096C73.7588 57.5057 73.7709 57.4992 73.7814 57.4904C73.7918 57.4816 73.8003 57.4707 73.8063 57.4584C73.8123 57.4462 73.8156 57.4328 73.8162 57.4191C73.8162 57.3559 73.7386 57.3279 73.6648 57.3298C73.637 57.3269 73.609 57.3325 73.5845 57.3459C73.56 57.3593 73.5401 57.3799 73.5276 57.4049L73.4251 57.3858C73.4446 57.3396 73.4784 57.3009 73.5216 57.2753C73.5647 57.2496 73.6148 57.2384 73.6648 57.2433C73.7911 57.2433 73.9283 57.2975 73.9295 57.4185C73.9312 57.445 73.9252 57.4714 73.9123 57.4946C73.8994 57.5177 73.8801 57.5367 73.8567 57.5492C73.8868 57.5596 73.9128 57.5795 73.9308 57.6057C73.9489 57.632 73.958 57.6634 73.957 57.6952C73.957 57.7858 73.8627 57.8777 73.6731 57.8789C73.5026 57.8795 73.4238 57.802 73.4023 57.7172L73.5109 57.7006C73.5204 57.7507 73.5705 57.7947 73.672 57.7941C73.7983 57.7935 73.8579 57.7387 73.8496 57.6868C73.8449 57.651 73.8102 57.5986 73.7076 57.5992L73.5897 57.5999L73.5872 57.5139Z" fill="white"/>
<path d="M66 74.0219C66 74.3624 68.4744 74.6242 71.5272 74.6075C74.5739 74.5907 77.0459 74.2997 77.0459 73.9599C77.0459 73.6201 74.5716 73.3572 71.5177 73.3738C68.4721 73.3911 66 73.6809 66 74.0219ZM68.6521 73.9433C70.5454 73.5556 72.4965 73.5448 74.3939 73.9117C72.5008 74.3009 70.5494 74.3116 68.6521 73.9433Z" fill="white"/>
<path d="M71.5272 74.7983C68.4792 74.8138 66.0049 74.5515 66.0012 74.2128L66.0049 74.6105V74.6153C66.0287 74.9557 68.4911 75.2151 71.5272 75.1978C74.5621 75.1805 77.0221 74.8932 77.0459 74.5544L77.0388 74.1699C76.9446 74.5038 74.5191 74.7822 71.5272 74.7983ZM66.0012 74.2063L66 74.2128L66.0049 74.2057L66.0012 74.2063Z" fill="white"/>
</svg>