<svg width="96" height="96" viewBox="0 0 96 96" fill="none" xmlns="http://www.w3.org/2000/svg">
<path d="M0 20C0 8.9543 8.9543 0 20 0H76C87.0457 0 96 8.9543 96 20V76C96 87.0457 87.0457 96 76 96H20C8.9543 96 0 87.0457 0 76V20Z" fill="#75C5F0"/>
<path d="M66.096 31.8516H30.3828V58.5461H66.096V31.8516Z" fill="#F53B47"/>
<path d="M55.0008 16H40.996C40.2885 16 39.5879 16.1394 38.9343 16.4102C38.2806 16.681 37.6867 17.0779 37.1865 17.5783C36.6863 18.0787 36.2896 18.6727 36.0189 19.3264C35.7483 19.9801 35.6092 20.6807 35.6094 21.3883V26.7177H39.7352V22.5157C39.7352 20.214 40.278 19.718 42.5813 19.718H53.4167C55.7189 19.718 56.4402 20.214 56.4402 22.5157V26.7177H60.3896V21.3883C60.3897 20.6806 60.2503 19.9799 59.9795 19.3261C59.7087 18.6723 59.3118 18.0782 58.8114 17.5779C58.311 17.0775 57.7169 16.6806 57.0631 16.4099C56.4092 16.1392 55.7085 15.9999 55.0008 16Z" fill="white"/>
<path d="M69.2413 25.9303H26.7588C25.6301 25.886 24.504 26.0691 23.4474 26.4687C22.3908 26.8682 21.4253 27.476 20.6083 28.256C19.7912 29.036 19.1393 29.9723 18.6912 31.0093C18.2432 32.0462 18.0081 33.1626 18 34.2922V58.601C18.0001 60.9239 18.923 63.1517 20.5656 64.7941C22.2081 66.4366 24.4359 67.3593 26.7588 67.3593H69.2413C71.5642 67.3593 73.792 66.4366 75.4345 64.7941C77.0771 63.1516 77.9999 60.9239 78 58.601V34.2922C77.9919 33.1626 77.7569 32.0462 77.3088 31.0093C76.8608 29.9724 76.2089 29.0361 75.3918 28.256C74.5748 27.476 73.6093 26.8682 72.5527 26.4687C71.4961 26.0691 70.37 25.886 69.2413 25.9303ZM59.2711 50.5793C59.2712 50.6335 59.2607 50.6871 59.24 50.7372C59.2193 50.7872 59.1888 50.8327 59.1505 50.871C59.1121 50.9092 59.0666 50.9395 59.0165 50.9601C58.9664 50.9806 58.9127 50.9911 58.8585 50.9908H53.1064C53.0465 50.991 52.9891 51.0149 52.9468 51.0574C52.9045 51.0998 52.8808 51.1572 52.8807 51.2171V56.9707C52.8806 57.0247 52.8698 57.0782 52.849 57.1281C52.8282 57.1779 52.7977 57.2232 52.7594 57.2614C52.7211 57.2995 52.6756 57.3297 52.6257 57.3502C52.5757 57.3708 52.5221 57.3813 52.4681 57.3811H44.9083C44.8544 57.3811 44.801 57.3705 44.7512 57.3499C44.7014 57.3293 44.6561 57.299 44.618 57.2609C44.5799 57.2228 44.5497 57.1775 44.5291 57.1277C44.5084 57.0779 44.4978 57.0246 44.4978 56.9707V56.7465L44.4957 51.2171C44.4959 51.1875 44.4902 51.1581 44.479 51.1307C44.4678 51.1032 44.4513 51.0783 44.4304 51.0572C44.4095 51.0362 44.3847 51.0195 44.3573 51.0081C44.33 50.9967 44.3006 50.9908 44.271 50.9908H38.5169C38.4628 50.9909 38.4092 50.9804 38.3591 50.9597C38.3091 50.9391 38.2636 50.9088 38.2253 50.8706C38.187 50.8324 38.1566 50.787 38.1358 50.737C38.1151 50.687 38.1043 50.6334 38.1043 50.5793V43.0189C38.1043 42.9648 38.115 42.9112 38.1358 42.8612C38.1565 42.8111 38.1869 42.7657 38.2252 42.7274C38.2636 42.6892 38.3091 42.6588 38.3591 42.6381C38.4091 42.6175 38.4628 42.6068 38.5169 42.6069H44.271C44.3005 42.607 44.3298 42.6014 44.357 42.5902C44.3843 42.579 44.4092 42.5625 44.43 42.5416C44.4509 42.5208 44.4675 42.496 44.4788 42.4688C44.49 42.4415 44.4958 42.4123 44.4957 42.3827L44.4978 36.6276C44.4976 36.5735 44.5081 36.52 44.5287 36.47C44.5492 36.42 44.5794 36.3745 44.6175 36.3362C44.6556 36.2979 44.7009 36.2674 44.7508 36.2466C44.8007 36.2258 44.8542 36.2151 44.9083 36.215H52.4681C52.5223 36.2149 52.576 36.2256 52.626 36.2463C52.6761 36.267 52.7216 36.2974 52.7599 36.3357C52.7983 36.3741 52.8286 36.4196 52.8494 36.4696C52.8701 36.5197 52.8807 36.5734 52.8807 36.6276V42.3827C52.881 42.4424 52.9049 42.4995 52.9472 42.5415C52.9895 42.5836 53.0468 42.6071 53.1064 42.6069H58.8585C58.9127 42.6067 58.9664 42.6172 59.0165 42.6378C59.0667 42.6584 59.1122 42.6888 59.1506 42.7271C59.1889 42.7654 59.2193 42.8109 59.24 42.861C59.2606 42.9111 59.2712 42.9647 59.2711 43.0189V50.5793Z" fill="white"/>
<path d="M14.7824 78.826C14.7824 78.826 23.1867 77.8681 24.0708 78.3101C24.9596 78.7534 31.146 82.0083 32.0313 82.2302C32.9202 82.4515 41.7447 84.9734 42.9416 84.7957C43.8729 84.6571 44.6271 82.9773 41.9206 81.7368C39.2139 80.4974 36.2902 79.258 36.9748 78.8803C37.6641 78.5026 48.0821 78.9292 49.4549 79.0727C51.1405 79.2503 53.9793 79.1145 54.2437 77.6945C54.5105 76.2764 51.3825 75.9907 49.5434 75.7906C47.7021 75.5924 43.9578 74.9968 43.9331 74.7094C43.9118 74.4208 52.8461 74.8369 55.306 73.791C56.1559 73.4329 56.5915 71.4421 54.4384 71.1995C52.2902 70.9564 43.5778 71.2049 43.7985 70.9842C44.0205 70.7628 52.2665 70.4465 53.2426 70.0481C54.2177 69.6491 54.3051 69.0276 53.683 68.2734C53.0633 67.5208 46.4131 67.5239 45.1713 67.348C43.9283 67.1697 41.204 67.4176 41.1131 67.1497C41.0258 66.8835 47.2322 67.1013 48.2745 66.9023C49.3156 66.7023 50.0049 66.1033 49.6036 65.5716C49.2058 65.0391 47.5426 64.4849 43.8375 64.0241C40.155 63.7815 36.4575 63.9017 32.7986 64.3829C30.4272 64.8049 24.9301 67.6017 23.4878 67.2694C22.0488 66.939 14.8851 65.8566 14.6207 65.9451C14.3539 66.0336 14.7824 78.826 14.7824 78.826Z" fill="#004280"/>
<path d="M16.1423 85.0008C16.1423 85.0008 23.136 80.2432 24.124 80.2237C25.1155 80.2031 32.1081 80.2049 32.9969 79.9871C33.8834 79.7699 42.8661 77.8949 43.8457 77.1825C44.6047 76.6254 44.489 74.7876 41.5169 74.9504C38.5458 75.1098 35.3766 75.3754 35.8109 74.722C36.2418 74.0698 45.666 69.5945 46.9466 69.0816C48.5201 68.4548 50.9694 67.0147 50.5444 65.6373C50.1172 64.2556 47.217 65.4596 45.4971 66.1395C43.7749 66.8194 40.183 68.0357 40.0284 67.7896C39.875 67.5453 47.9747 63.7557 49.6674 61.6883C50.2529 60.9724 49.711 59.0088 47.6926 59.7955C45.6777 60.584 38.0831 64.8559 38.1752 64.5566C38.2661 64.2562 45.4216 60.139 46.0979 59.3328C46.7754 58.5261 46.5641 57.9353 45.6648 57.5563C44.7641 57.1792 38.8776 60.2788 37.6984 60.7003C36.5157 61.1211 34.2174 62.6072 34.0144 62.4137C33.8102 62.2194 39.4075 59.5223 40.2374 58.8613C41.066 58.199 41.3954 57.3492 40.7945 57.0635C40.1937 56.7785 38.4645 57.0629 34.9704 58.3802C31.5983 59.8793 28.3816 61.7062 25.3669 63.8347C23.4642 65.3132 19.9017 70.3452 18.4723 70.7229C17.0429 71.0994 10.2003 73.4743 10.0044 73.6786C9.81072 73.8792 16.1423 85.0008 16.1423 85.0008Z" fill="#004B92"/>
</svg>