<svg width="96" height="96" viewBox="0 0 96 96" fill="none" xmlns="http://www.w3.org/2000/svg">
<path d="M0 20C0 8.9543 8.9543 0 20 0H76C87.0457 0 96 8.9543 96 20V76C96 87.0457 87.0457 96 76 96H20C8.9543 96 0 87.0457 0 76V20Z" fill="#75C5F0"/>
<path d="M83.8281 54.0835V53.8315C82.6934 46.2783 80.7832 45.1611 69.4121 39.7949L54.5557 40.1094C43.1797 43.9648 40.2666 46.5303 39.2598 55.0913L38 66.4233H84.918L83.8281 54.0835Z" fill="white"/>
<path d="M55.3752 36.207L54.3691 39.984L61.3891 45.646L61.1671 36.836L55.3752 36.207Z" fill="#D2E9FF"/>
<path d="M67.055 36.332L68.062 40.109L61.041 45.77L61.264 36.961L67.055 36.332Z" fill="white"/>
<path d="M54.791 37.9697C55.4863 38.8515 59.1514 41.6924 61.2666 41.4668C63.3809 41.2432 66.8906 39.3555 67.5869 37.8438C68.167 38.4726 70.3565 40.1729 70.3565 40.1729L61.0391 61.8911L52.3535 40.9902L54.791 37.9697Z" fill="#0A3960"/>
<path d="M54.6074 36.2812C54.8824 36.6528 55.1774 37.0091 55.4911 37.3486L55.498 37.328C55.183 36.9949 54.8858 36.6455 54.6074 36.2812Z" fill="white"/>
<path d="M72.5762 26.6299C72.5762 25.3516 72.208 24.8369 71.5772 24.627C71.7285 22.0166 72.1045 19.2529 71.1485 17.3398C69.3291 13.6875 64.3057 11.4414 60.875 11.4414C58.9984 11.473 57.1602 11.9776 55.5305 12.9084C53.9008 13.8393 52.5323 15.1663 51.5518 16.7666C50.419 18.8643 50.9932 21.626 51.1387 24.4492C50.4405 24.6338 50.0312 25.1338 50.0312 26.4863C50.0312 28.4951 50.9336 31.668 52.3438 32.1201C52.5243 32.6104 52.7256 33.083 52.9434 33.54C52.9571 33.5693 52.9756 33.5947 52.9873 33.6172C53.4464 34.5517 53.9886 35.443 54.6075 36.2803C54.8858 36.6446 55.1831 36.994 55.498 37.3271L55.4912 37.3477C56.2133 38.2249 57.1124 38.9399 58.1296 39.446C59.1468 39.9522 60.2593 40.2381 61.3946 40.2852C64.7158 40.2852 67.6856 37.7764 69.7022 33.8115C69.8477 33.5286 70.0232 33.2621 70.2256 33.0166C70.3428 32.7207 70.459 32.4287 70.5576 32.1221C71.8008 31.3535 72.5762 28.4922 72.5762 26.6299Z" fill="white"/>
<path d="M69.7022 33.8122C69.8477 33.5293 70.0232 33.2628 70.2256 33.0173C70.3428 32.7234 70.459 32.4294 70.5576 32.1228C71.8008 31.3542 72.5762 28.4929 72.5762 26.6316C72.5762 25.3542 72.208 24.8386 71.5772 24.6277C71.7285 22.0173 72.1045 19.2536 71.1485 17.3415C69.3496 13.7312 64.4257 11.4997 60.998 11.447V40.2614C61.1308 40.2693 61.2617 40.2859 61.3946 40.2859C64.7158 40.2859 67.6856 37.7771 69.7022 33.8122Z" fill="white"/>
<path d="M67.4477 16.1795C67.6547 17.8553 64.5092 17.784 62.4096 17.4363C60.6206 17.1868 58.7975 17.4031 57.1166 18.0643C56.2115 18.363 55.3746 18.8384 54.6544 19.4628C53.9343 20.0872 53.3452 20.8483 52.9213 21.702C52.8284 22.8891 52.8202 24.0812 52.8969 25.2694L51.1391 24.45C51.1391 24.45 50.3315 20.1287 50.9604 17.367C51.5668 14.7088 53.1079 12.5633 58.0707 11.492C62.5727 10.5194 65.7299 11.1072 65.8715 12.2244C66.2192 12.2967 66.5024 12.0164 66.9204 12.0164C67.7274 12.1741 68.494 12.4941 69.1737 12.9569C69.8533 13.4197 70.432 14.0157 70.8745 14.7088C71.7836 16.1795 72.6577 18.869 72.0258 23.4188C72.0136 23.9423 71.8827 24.4562 71.643 24.9217L70.1762 25.7606C70.1762 25.7606 70.8276 20.0242 68.4487 18.3446C67.6977 17.8162 67.4477 16.1795 67.4477 16.1795Z" fill="#004B92"/>
<path d="M68.4286 18.2823C70.8067 19.9619 70.1573 25.6963 70.1573 25.6963L71.6211 24.8594C71.861 24.3939 71.9922 23.8801 72.0049 23.3565C72.6358 18.8067 71.7627 16.1162 70.8526 14.6455C70.4102 13.9525 69.8317 13.3566 69.1522 12.8938C68.4726 12.431 67.7062 12.111 66.8994 11.9531C66.5769 11.9888 66.2591 12.0582 65.9512 12.1602C66.3975 13.6426 67.4366 15.7656 67.4268 16.1162C67.4268 16.1162 67.6757 17.753 68.4286 18.2823Z" fill="#004B92"/>
<path d="M67.4277 16.1172C67.4257 16.2198 67.4122 16.3624 67.4023 16.5049C67.4345 16.3783 67.4431 16.2469 67.4277 16.1172Z" fill="#004B92"/>
<path d="M54.6651 38.0947C55.3604 38.9756 59.0245 41.8173 61.1388 41.5938C63.254 41.3681 66.7628 39.4794 67.46 37.9688C68.0411 38.5976 70.2296 40.2979 70.2296 40.2979L60.9141 62.0171L52.2266 41.1161L54.6651 38.0947Z" fill="#004B92"/>
<path d="M62.5653 47.2695H61.0273V43.2305H64.0883L64.1083 44.9695L62.5653 47.2695Z" fill="#75C5F0"/>
<path d="M62.7593 46.6543L65.4513 72.1343L61.1943 75.4733L61.1043 75.3843L60.9473 46.6743L62.7593 46.6543Z" fill="#75C5F0"/>
<path d="M59.846 47.2695H61.135V43.2305H58.002L58.024 44.9695L59.846 47.2695Z" fill="#75C5F0"/>
<path d="M59.6305 46.6543L56.9375 72.1343L61.1945 75.4733L61.1345 46.6543H59.6305Z" fill="#75C5F0"/>
<path d="M62.8208 47.2276H59.5918V46.9336H62.7888L62.8208 47.2276Z" fill="#75C5F0"/>
<path d="M37.0509 42.6406C36.6742 42.7459 36.3241 42.9301 36.0241 43.1811C35.747 43.5508 35.6169 44.0101 35.6589 44.4702C35.5695 46.7234 35.8483 48.9761 36.4844 51.1395C36.5771 51.3249 36.7558 51.2594 36.8485 51.1168C37.0304 50.6181 37.0938 50.0839 37.0339 49.5564C36.9017 49.4569 36.628 49.346 36.507 49.1222C36.4434 47.6787 36.4774 46.2326 36.6087 44.7936C36.6799 44.5924 36.9163 44.6285 37.0859 44.6557C37.0079 43.9868 36.9962 43.3118 37.0509 42.6406Z" fill="#004B92"/>
<path d="M40.5273 44.9629H13.4703C13.4084 44.963 13.3471 44.9753 13.2899 44.9991C13.2328 45.023 13.1809 45.0578 13.1372 45.1017C13.0935 45.1456 13.0589 45.1977 13.0353 45.255C13.0118 45.3123 12.9998 45.3736 13 45.4356V80.5165C12.9998 80.5784 13.0118 80.6398 13.0353 80.6971C13.0589 80.7544 13.0935 80.8065 13.1372 80.8504C13.1809 80.8943 13.2328 80.9291 13.2899 80.9529C13.3471 80.9767 13.4084 80.9891 13.4703 80.9892H40.5273C40.5894 80.9892 40.6509 80.977 40.7083 80.9533C40.7656 80.9295 40.8177 80.8947 40.8616 80.8508C40.9055 80.8069 40.9404 80.7548 40.9641 80.6974C40.9878 80.6401 41 80.5786 41 80.5165V45.4356C41 45.3735 40.9878 45.312 40.9641 45.2546C40.9404 45.1973 40.9055 45.1452 40.8616 45.1013C40.8177 45.0574 40.7656 45.0226 40.7083 44.9988C40.6509 44.9751 40.5894 44.9629 40.5273 44.9629Z" fill="#004B92"/>
<path d="M37.3815 73.1007C37.3747 73.1074 34.351 76.3346 34.3816 76.3346H16.9677C16.9215 76.3347 16.8756 76.3256 16.8329 76.3079C16.7902 76.2901 16.7514 76.2641 16.7188 76.2313C16.6862 76.1985 16.6605 76.1595 16.643 76.1167C16.6256 76.0739 16.6168 76.028 16.6172 75.9818V49.9696C16.6171 49.9236 16.626 49.8779 16.6436 49.8353C16.6611 49.7927 16.6869 49.7541 16.7195 49.7215C16.7521 49.6889 16.7908 49.6631 16.8334 49.6455C16.876 49.628 16.9216 49.619 16.9677 49.6191H37.0332C37.0791 49.6192 37.1245 49.6284 37.1669 49.646C37.2092 49.6637 37.2477 49.6896 37.28 49.7221C37.3124 49.7547 37.338 49.7933 37.3554 49.8358C37.3728 49.8782 37.3817 49.9237 37.3815 49.9696V73.1007Z" fill="white"/>
<path d="M31.8735 44.1172H22.1195C22.0049 44.1172 21.895 44.1627 21.814 44.2437C21.733 44.3247 21.6875 44.4346 21.6875 44.5491C21.6875 44.6637 21.733 44.7736 21.814 44.8546C21.895 44.9356 22.0049 44.9811 22.1195 44.9811H22.8748C22.7676 45.1452 22.7106 45.337 22.7108 45.533C22.7109 45.8044 22.8187 46.0648 23.0106 46.2568C23.2025 46.4489 23.4627 46.557 23.7342 46.5574H30.2621C30.446 46.5577 30.6265 46.5085 30.7847 46.4148C30.9429 46.3211 31.0728 46.1864 31.1609 46.025C31.2489 45.8635 31.2917 45.6814 31.2847 45.4976C31.2778 45.3139 31.2214 45.1355 31.1215 44.9811H31.8735C31.988 44.9811 32.0979 44.9356 32.1789 44.8546C32.2599 44.7736 32.3054 44.6637 32.3054 44.5491C32.3054 44.4346 32.2599 44.3247 32.1789 44.2437C32.0979 44.1627 31.988 44.1172 31.8735 44.1172Z" fill="#F53B47"/>
<path d="M34.3505 53.4922H19.6426V54.0892H34.3505V53.4922Z" fill="#D2E9FF"/>
<path d="M34.3505 56.0566H19.6426V56.6537H34.3505V56.0566Z" fill="#D2E9FF"/>
<path d="M34.3505 58.7988H19.6426V59.3958H34.3505V58.7988Z" fill="#D2E9FF"/>
<path d="M34.3505 61.3633H19.6426V61.9604H34.3505V61.3633Z" fill="#D2E9FF"/>
<path d="M34.3505 64.1074H19.6426V64.7044H34.3505V64.1074Z" fill="#D2E9FF"/>
<path d="M34.3505 66.6719H19.6426V67.2667H34.3505V66.6719Z" fill="#D2E9FF"/>
<path d="M34.3505 69.4141H19.6426V70.0111H34.3505V69.4141Z" fill="#D2E9FF"/>
<path d="M34.7197 73.0918H37.3894L34.3691 76.3416V73.4423C34.3691 73.3962 34.3781 73.3506 34.3957 73.3081C34.4133 73.2655 34.4392 73.2268 34.4717 73.1943C34.5043 73.1617 34.5429 73.1359 34.5855 73.1183C34.6281 73.1007 34.6737 73.0917 34.7197 73.0918Z" fill="#D2E9FF"/>
<path d="M38.6149 68.3189C38.6149 68.3189 38.3989 68.8368 38.2903 68.8368C38.183 68.8368 37.9512 68.3008 37.9512 68.3008L38.6149 68.3189Z" fill="#CDE3E8"/>
<path d="M38.6157 68.3337C38.8765 67.4325 39.0458 66.5074 39.1211 65.5723L37.459 65.5791C37.5504 66.5116 37.7175 67.435 37.9587 68.3404C38.3409 68.3359 38.5649 68.3359 38.6157 68.3337Z" fill="white"/>
<path d="M39.1101 65.6304C39.2831 64.7801 39.6189 52.5452 39.6189 52.5452L36.8496 52.543C36.8496 52.543 37.3031 64.7869 37.4761 65.6418C38.4588 65.6575 38.9405 65.635 39.1101 65.6304Z" fill="#D2E9FF"/>
<path d="M38.2427 42.7513H38.2506L38.2517 42.7491L39.6403 42.6564C39.6403 42.5387 39.7432 40.8901 38.2506 40.8652H38.2348C36.7422 40.8901 36.8473 42.5387 36.8473 42.6564L38.2337 42.7491L38.2348 42.7513H38.2427Z" fill="#004B92"/>
<path d="M38.2322 52.1623L38.6213 52.2053V52.1239L39.6412 52.0899C39.6412 52.0062 39.7227 42.8244 39.6265 42.3811C38.9798 42.3653 38.5229 42.3653 38.2322 42.3698C37.9427 42.3653 37.4848 42.3653 36.8415 42.3811C36.7431 42.8244 36.8844 51.9248 36.8844 52.0085L37.8444 52.1239V52.2053L38.2322 52.1623Z" fill="#D2E9FF"/>
<path d="M36.8315 51.8672H39.7252C39.7326 51.8672 39.74 51.8686 39.7468 51.8715C39.7537 51.8743 39.7599 51.8785 39.7652 51.8837C39.7704 51.889 39.7745 51.8952 39.7774 51.9021C39.7802 51.9089 39.7817 51.9163 39.7817 51.9237V52.6158C39.7817 52.6232 39.7802 52.6305 39.7774 52.6374C39.7745 52.6443 39.7704 52.6505 39.7652 52.6557C39.7599 52.661 39.7537 52.6651 39.7468 52.668C39.74 52.6708 39.7326 52.6723 39.7252 52.6723H36.8258C36.8114 52.6723 36.7976 52.6666 36.7874 52.6564C36.7772 52.6462 36.7715 52.6324 36.7715 52.618V51.9272C36.7715 51.9193 36.773 51.9115 36.776 51.9042C36.7791 51.8969 36.7835 51.8903 36.789 51.8847C36.7946 51.8792 36.8012 51.8748 36.8085 51.8717C36.8158 51.8687 36.8236 51.8672 36.8315 51.8672Z" fill="#004B92"/>
</svg>